<?xml version="1.0"?>
<svg width="250" height="125" xmlns="http://www.w3.org/2000/svg" xmlns:svg="http://www.w3.org/2000/svg" enable-background="new 14.866 14.116 105 121.25" version="1.1" xml:space="preserve">
 <metadata>image/svg+xmlOpenclipart</metadata>

 <g class="layer">
  <title>Layer 1</title>
  <g id="g5564">
   <path d="m150.86,5.85c-13.69,-1.03 -25.62,9.23 -26.65,22.92c-0.9,12.03 6.93,22.71 18.14,25.8l-0.38,5.04l-6.59,5.68l5.67,6.59l-0.36,4.81l-3.62,3.12l3.11,3.62l-6.59,5.67l2.44,2.85l-2.84,2.44l5.67,6.6l-3.62,3.12l3.12,3.62l-0.49,6.49l2.28,3.06l4.31,-57.4l2.32,0.18l-4.52,60.06l4.81,0.36l4.52,-60.06l3.61,0.27l-4.24,56.31l3.11,-2.77l4.57,-60.71c8.3,-3.51 14.4,-11.42 15.13,-21.03c1.03,-13.68 -9.23,-25.6 -22.92,-26.63l0.01,-0.01zm-1.69,22.37c-3.98,-0.3 -6.97,-3.77 -6.67,-7.76s3.77,-6.97 7.76,-6.67c3.98,0.3 6.97,3.77 6.67,7.76c-0.3,3.98 -3.77,6.97 -7.76,6.67z" fill="#D6D6D6" id="path5572"/>
   <path d="m150.86,5.85c-13.69,-1.03 -25.62,9.23 -26.65,22.92c-0.9,12.03 6.93,22.71 18.14,25.8l-0.38,5.04l-6.59,5.68l5.67,6.59l-0.36,4.81l-3.62,3.12l3.11,3.62l-6.59,5.67l2.44,2.85l-2.84,2.44l5.67,6.6l-3.62,3.12l3.12,3.62l-0.49,6.49l2.28,3.06l4.31,-57.4l2.32,0.18l-4.52,60.06l4.81,0.36l4.52,-60.06l3.61,0.27l-4.24,56.31l3.11,-2.77l4.57,-60.71c8.3,-3.51 14.4,-11.42 15.13,-21.03c1.03,-13.68 -9.23,-25.6 -22.92,-26.63l0.01,-0.01zm-1.69,22.37c-3.98,-0.3 -6.97,-3.77 -6.67,-7.76s3.77,-6.97 7.76,-6.67c3.98,0.3 6.97,3.77 6.67,7.76c-0.3,3.98 -3.77,6.97 -7.76,6.67z" fill="none" id="path5574" stroke="#292929" stroke-linecap="round" stroke-linejoin="round" stroke-width="1.42"/>
   <path d="m140.15,117.28l2.12,2.84l4.51,-60.06l-2.31,-0.18l-4.32,57.4zm11.44,-56.86l-4.51,60.06l3.89,-3.48l4.23,-56.31l-3.61,-0.28l0,0.01z" fill="#8C8C8C" id="path5576"/>
   <path d="m150.82,7.9c-12.55,-0.94 -23.5,8.47 -24.44,21.03s8.47,23.49 21.02,24.44s23.5,-8.47 24.44,-21.03c0.95,-12.55 -8.46,-23.49 -21.02,-24.44zm-1.62,21.54c-4.58,-0.35 -8.02,-4.34 -7.68,-8.93c0.35,-4.59 4.34,-8.02 8.93,-7.68c4.58,0.35 8.02,4.34 7.68,8.93c-0.35,4.58 -4.34,8.02 -8.93,7.68z" fill="#8192C4" id="path5578"/>
   <path d="m150.82,6.29c-13.43,-1.01 -25.14,9.06 -26.15,22.49c-0.85,11.45 6.33,21.64 16.8,25.03c8.03,1.75 14.28,0.76 17.71,-1.05c0,0 12.96,-4.79 14.13,-20.33c1.01,-13.43 -9.06,-25.13 -22.49,-26.14zm6.66,44.44l-0.72,0.3c-5.97,1.99 -12.59,0.9 -12.59,0.9l-1.01,-0.28c-9.85,-2.72 -16.74,-12.1 -15.94,-22.68c0.92,-12.03 11.38,-21.03 23.41,-20.15c12.03,0.93 21.03,11.39 20.15,23.42c-0.64,8.45 -6,15.4 -13.3,18.49zm-7.01,-39.76c-5.55,-0.41 -10.38,3.74 -10.8,9.29c-0.42,5.54 3.74,10.38 9.29,10.79c5.55,0.42 10.38,-3.74 10.79,-9.28c0.41,-5.55 -3.74,-10.38 -9.28,-10.8zm-1.33,17.76c-4.26,-0.33 -7.45,-4.04 -7.14,-8.3c0.33,-4.25 4.03,-7.44 8.29,-7.13c4.26,0.33 7.45,4.03 7.14,8.29c-0.33,4.26 -4.04,7.45 -8.3,7.14l0.01,0z" fill="#3562A5" id="path5580"/>
  </g>
  <g id="g5582">
   <path d="m143.65,12.16c-13.07,-4.18 -27.06,3.04 -31.23,16.11c-3.67,11.5 1.47,23.69 11.66,29.31l-1.54,4.81l-7.73,3.99l3.99,7.73l-1.47,4.6l-4.25,2.19l2.19,4.24l-7.73,3.99l1.72,3.33l-3.33,1.73l3.99,7.73l-4.25,2.18l2.19,4.25l-1.98,6.2l1.51,3.51l17.51,-54.83l2.21,0.7l-18.32,57.38l4.59,1.46l18.33,-57.37l3.44,1.1l-17.18,53.8l3.67,-1.98l18.52,-57.99c8.9,-1.48 16.67,-7.77 19.6,-16.95c4.17,-13.06 -3.04,-27.04 -16.11,-31.22zm-6.83,21.37c-3.81,-1.22 -5.91,-5.29 -4.69,-9.1s5.29,-5.91 9.1,-4.69c3.8,1.22 5.9,5.29 4.69,9.1s-5.29,5.9 -9.1,4.69z" fill="#D6D6D6" id="path5590"/>
   <path d="m143.65,12.16c-13.07,-4.18 -27.06,3.04 -31.23,16.11c-3.67,11.5 1.47,23.69 11.66,29.31l-1.54,4.81l-7.73,3.99l3.99,7.73l-1.47,4.6l-4.25,2.19l2.19,4.24l-7.73,3.99l1.72,3.33l-3.33,1.73l3.99,7.73l-4.25,2.18l2.19,4.25l-1.98,6.2l1.51,3.51l17.51,-54.83l2.21,0.7l-18.32,57.38l4.59,1.46l18.33,-57.37l3.44,1.1l-17.18,53.8l3.67,-1.98l18.52,-57.99c8.9,-1.48 16.67,-7.77 19.6,-16.95c4.17,-13.06 -3.04,-27.04 -16.11,-31.22zm-6.83,21.37c-3.81,-1.22 -5.91,-5.29 -4.69,-9.1s5.29,-5.91 9.1,-4.69c3.8,1.22 5.9,5.29 4.69,9.1s-5.29,5.9 -9.1,4.69z" fill="none" id="path5592" stroke="#292929" stroke-linecap="round" stroke-linejoin="round" stroke-width="1.42"/>
   <path d="m107.38,118.06l1.4,3.25l18.33,-57.37l-2.21,-0.71l-17.52,54.83zm24.32,-52.65l-18.32,57.37l4.59,-2.48l17.18,-53.79l-3.44,-1.1l-0.01,0z" fill="#8C8C8C" id="path5594"/>
   <path d="m143.14,14.15c-12,-3.83 -24.82,2.78 -28.65,14.78c-3.83,11.99 2.78,24.82 14.78,28.65c11.99,3.83 24.82,-2.79 28.65,-14.78c3.83,-11.99 -2.79,-24.82 -14.78,-28.65zm-6.57,20.57c-4.38,-1.4 -6.8,-6.09 -5.4,-10.47c1.4,-4.38 6.08,-6.79 10.47,-5.39c4.38,1.39 6.79,6.08 5.39,10.46c-1.39,4.38 -6.08,6.8 -10.46,5.4z" fill="#E4AE6A" id="path5596"/>
   <path d="m143.52,12.57c-12.84,-4.09 -26.56,2.98 -30.66,15.82c-3.49,10.93 1.14,22.52 10.54,28.24c7.4,3.56 13.71,4.05 17.47,3.09c0,0 13.72,-1.65 18.45,-16.49c4.1,-12.84 -2.97,-26.56 -15.8,-30.66zm-3.84,44.78l-0.77,0.13c-6.27,0.54 -12.46,-2.05 -12.46,-2.05l-0.92,-0.51c-8.95,-4.93 -13.47,-15.65 -10.24,-25.76c3.69,-11.48 15.95,-17.81 27.45,-14.16c11.48,3.69 17.81,15.95 14.16,27.45c-2.58,8.07 -9.41,13.59 -17.22,14.9zm2.41,-40.3c-5.3,-1.69 -10.97,1.23 -12.66,6.53c-1.69,5.3 1.23,10.96 6.53,12.65c5.3,1.7 10.96,-1.23 12.65,-6.53c1.7,-5.29 -1.23,-10.96 -6.52,-12.65zm-5.42,16.96c-4.07,-1.31 -6.31,-5.65 -5.02,-9.72c1.31,-4.07 5.65,-6.31 9.72,-5.02c4.07,1.31 6.31,5.65 5.02,9.72c-1.31,4.07 -5.65,6.31 -9.72,5.02z" fill="#D57E1C" id="path5598"/>
  </g>
  <g id="g5600">
   <path d="m136.72,12.6c-11.6,-7.34 -26.95,-3.89 -34.28,7.7c-6.46,10.2 -4.57,23.3 3.88,31.31l-2.71,4.27l-8.49,1.9l1.91,8.49l-2.58,4.08l-4.66,1.05l1.05,4.66l-8.49,1.9l0.82,3.67l-3.66,0.82l1.91,8.48l-4.66,1.05l1.05,4.66l-3.49,5.5l0.58,3.78l30.78,-48.64l1.97,1.24l-32.22,50.89l4.08,2.59l32.21,-50.89l3.06,1.93l-30.21,47.72l4.06,-0.99l32.56,-51.43c8.98,0.8 18.08,-3.32 23.23,-11.46c7.34,-11.59 3.89,-26.94 -7.7,-34.28zm-12,18.95c-3.38,-2.14 -4.38,-6.6 -2.24,-9.98c2.13,-3.38 6.6,-4.38 9.98,-2.24c3.38,2.13 4.38,6.6 2.24,9.98s-6.6,4.38 -9.98,2.24z" fill="#D6D6D6" id="path5608"/>
   <path d="m136.72,12.6c-11.6,-7.34 -26.95,-3.89 -34.28,7.7c-6.46,10.2 -4.57,23.3 3.88,31.31l-2.71,4.27l-8.49,1.9l1.91,8.49l-2.58,4.08l-4.66,1.05l1.05,4.66l-8.49,1.9l0.82,3.67l-3.66,0.82l1.91,8.48l-4.66,1.05l1.05,4.66l-3.49,5.5l0.58,3.78l30.78,-48.64l1.97,1.24l-32.22,50.89l4.08,2.59l32.21,-50.89l3.06,1.93l-30.21,47.72l4.06,-0.99l32.56,-51.43c8.98,0.8 18.08,-3.32 23.23,-11.46c7.34,-11.59 3.89,-26.94 -7.7,-34.28zm-12,18.95c-3.38,-2.14 -4.38,-6.6 -2.24,-9.98c2.13,-3.38 6.6,-4.38 9.98,-2.24c3.38,2.13 4.38,6.6 2.24,9.98s-6.6,4.38 -9.98,2.24z" fill="none" id="path5610" stroke="#292929" stroke-linecap="round" stroke-linejoin="round" stroke-width="1.42"/>
   <path d="m74.9,105.92l0.53,3.5l32.21,-50.89l-1.96,-1.24l-30.78,48.63zm36.82,-44.81l-32.21,50.89l5.06,-1.24l30.21,-47.72l-3.06,-1.94l0,0.01z" fill="#8C8C8C" id="path5612"/>
   <path d="m135.72,14.39c-10.63,-6.73 -24.72,-3.57 -31.45,7.07c-6.73,10.64 -3.57,24.73 7.07,31.46c10.64,6.73 24.72,3.57 31.45,-7.07c6.74,-10.64 3.57,-24.72 -7.07,-31.45l0,-0.01zm-11.55,18.25c-3.88,-2.46 -5.04,-7.6 -2.58,-11.49c2.46,-3.88 7.61,-5.04 11.49,-2.58c3.89,2.46 5.04,7.6 2.58,11.49c-2.46,3.88 -7.6,5.04 -11.49,2.58z" fill="#98BE7C" id="path5614"/>
   <path d="m136.48,12.97c-11.38,-7.21 -26.44,-3.82 -33.64,7.56c-6.14,9.7 -4.59,22.08 3.06,29.99c6.26,5.31 12.25,7.38 16.12,7.39c0,0 13.69,1.87 22.03,-11.29c7.2,-11.39 3.81,-26.45 -7.57,-33.65zm-15.01,42.35l-0.77,-0.07c-6.21,-1.05 -11.54,-5.12 -11.54,-5.12l-0.76,-0.72c-7.42,-7.03 -9.09,-18.56 -3.41,-27.52c6.47,-10.18 19.93,-13.21 30.14,-6.77c10.18,6.47 13.2,19.93 6.77,30.14c-4.53,7.15 -12.54,10.77 -20.43,10.06zm12.5,-38.38c-4.7,-2.98 -10.92,-1.58 -13.89,3.12c-2.98,4.7 -1.58,10.92 3.12,13.89c4.7,2.98 10.92,1.58 13.9,-3.12c2.97,-4.7 1.57,-10.91 -3.13,-13.89zm-9.52,15.04c-3.6,-2.29 -4.68,-7.06 -2.4,-10.67c2.29,-3.6 7.06,-4.68 10.67,-2.4c3.61,2.29 4.68,7.06 2.4,10.67c-2.29,3.61 -7.06,4.68 -10.67,2.4z" fill="#519C3D" id="path5616"/>
  </g>
 </g>
</svg>