<?xml version="1.0" encoding="UTF-8"?>
<svg width="16" height="16" clip-rule="evenodd" fill-rule="evenodd" stroke-linejoin="round" stroke-miterlimit="1.414" aria-label="Logo" version="1.1" viewBox="1 -2 15 20" xmlns="http://www.w3.org/2000/svg">
  <path fill="#9ACEE6" id="svg_1" d="m11.24,1l0.59,0.24l2.11,4.93l-0.23,0.59l-3.29,1.41l-0.59,-0.24l-0.17,-0.41l-3.56,1.48l-0.58,-0.19l-0.16,-0.38l-2.56,1.06l-0.58,-0.24l-0.72,-1.67l0.28,-0.59l2.5,-1.06l-0.18,-0.41l0.24,-0.58l3.56,-1.53l-0.18,-0.41l0.28,-0.58l3.24,-1.42zm-8.74,6.64l0.35,0.85l2.22,-0.91l-0.37,-0.85l-2.2,0.91zm2.74,-2.12l1.11,2.45l3,-1.28l-1.11,-2.44l-3,1.27zm3.55,-2.52l1.86,4.11l2.29,-1.01l-1.76,-4.1l-2.46,1l0.07,0zm-0.29,6.1l3.02,4.9l-1.17,0l-1.88,-3.03l0,4l-1,0l0,-5.15l-1.89,4.18l-1.1,0l1.7,-3.9l2.32,-1z" clip-rule="evenodd" fill-rule="evenodd"/>
</svg>