<?xml version="1.0"?>
<svg width="332.272" height="365.30801" xmlns="http://www.w3.org/2000/svg" xmlns:svg="http://www.w3.org/2000/svg" version="1.1" xml:space="preserve">
 <metadata id="metadata8">image/svg+xml</metadata>
 <defs id="defs6">
  <clipPath clipPathUnits="userSpaceOnUse" id="clipPath16">
   <path d="m-46.4,671.76l898.02,0l0,-634.96l-898.02,0l0,634.96z" id="path18" stroke-width="1.07"/>
  </clipPath>
  <clipPath clipPathUnits="userSpaceOnUse" id="clipPath24">
   <path d="m373.21,406.16l82.79,0l0,-82.78l-82.79,0l0,82.78z" id="path26" stroke-width="1.07"/>
  </clipPath>
  <clipPath clipPathUnits="userSpaceOnUse" id="clipPath28">
   <path d="m414.61,406.16c22.86,0 41.39,-18.53 41.39,-41.39c0,-22.86 -18.53,-41.39 -41.39,-41.39c-22.86,0 -41.4,18.53 -41.4,41.39c0,22.86 18.54,41.39 41.4,41.39" id="path30" stroke-width="1.07"/>
  </clipPath>
  <clipPath clipPathUnits="userSpaceOnUse" id="clipPath58">
   <path d="m399.51,395.86l41.39,0l0,-41.39l-41.39,0l0,41.39z" id="path60" stroke-width="1.07"/>
  </clipPath>
  <clipPath clipPathUnits="userSpaceOnUse" id="clipPath62">
   <path d="m420.21,395.86c11.43,0 20.69,-9.26 20.69,-20.69c0,-11.43 -9.26,-20.7 -20.69,-20.7c-11.43,0 -20.7,9.27 -20.7,20.7c0,11.43 9.27,20.69 20.7,20.69" id="path64" stroke-width="1.07"/>
  </clipPath>
  <clipPath clipPathUnits="userSpaceOnUse" id="clipPath114">
   <path d="m-46.4,671.76l898.02,0l0,-634.96l-898.02,0l0,634.96z" id="path116" stroke-width="1.07"/>
  </clipPath>
  <clipPath clipPathUnits="userSpaceOnUse" id="clipPath206">
   <path d="m-46.4,671.76l898.02,0l0,-634.96l-898.02,0l0,634.96z" id="path208" stroke-width="1.07"/>
  </clipPath>
  <linearGradient id="linearGradient148" spreadMethod="pad" x1="0" x2="1" y1="0.5" y2="0.5">
   <stop id="stop150" offset="0" stop-color="#422801"/>
   <stop id="stop152" offset="0.33" stop-color="#59400f"/>
   <stop id="stop154" offset="0.74" stop-color="#71581d"/>
   <stop id="stop156" offset="1" stop-color="#7a6122"/>
  </linearGradient>
  <linearGradient id="linearGradient170" spreadMethod="pad" x1="0.41" x2="0.49" y1="0.97" y2="0.47">
   <stop id="stop172" offset="0" stop-color="#422801"/>
   <stop id="stop174" offset="0.33" stop-color="#59400f"/>
   <stop id="stop176" offset="0.74" stop-color="#71581d"/>
   <stop id="stop178" offset="1" stop-color="#7a6122"/>
  </linearGradient>
  <linearGradient id="linearGradient192" spreadMethod="pad" x1="0.35" x2="0.55" y1="0.9" y2="0.11">
   <stop id="stop194" offset="0" stop-color="#7a6240"/>
   <stop id="stop196" offset="0.43" stop-color="#806c47"/>
   <stop id="stop198" offset="1" stop-color="#85754d"/>
  </linearGradient>
 </defs>
 <g class="layer">
  <title>Layer 1</title>
  <g id="g10" transform="matrix(1.25, 0, 0, -1.25, -395.864, 578.355)">
   <g id="g12">
    <g clip-path="url(#clipPath16)" id="g14"/>
   </g>
   <g id="g106"/>
   <g id="g110">
    <g clip-path="url(#clipPath114)" id="g112">
     <g id="g118" transform="translate(582.493, 314.402)">
      <path d="m-46.4,36.8c-0.33,12.09 -4.03,18.47 -4.03,18.47c0,0 -0.33,9.73 -6.04,19.47c-5.71,9.74 -12.42,13.77 -12.42,13.77c0,0 -2.02,6.71 -8.06,11.42c-7.47,5.8 -14.11,6.04 -14.11,6.04c0,0 -4.36,4.36 -13.43,8.06c-9.06,3.69 -14.1,0.33 -14.1,0.33c0,0 -1.5,2.07 -5.24,3.56c3.03,-1.63 5.81,-4.95 6.69,-11.5c2.24,-16.57 1.72,-51.02 0.45,-98.05c-0.29,-10.75 -0.77,-18.99 -1.28,-25.23c1.44,11.21 3.24,25.95 4.42,38.21c2.24,23.28 3.13,75.22 3.13,75.22c0,0 31.34,-6.72 14.77,-69.4c-10.26,-38.84 -18.35,-62.67 -18.35,-62.67l-6.27,1.34l-3.22,0.01c4.71,-0.21 8.6,-1.02 11.74,-2.23c0.16,0.43 8.6,22.28 19.24,58.63c10.74,36.71 9.85,58.65 9.85,58.65c0,0 13.43,-2.24 5.82,-38.06c-7.28,-34.22 -29.67,-77.04 -31.65,-80.76c1.21,-0.69 2.26,-1.45 3.16,-2.26c0,0 5.66,7.81 23.12,42.28c17.46,34.47 17.9,47.46 17.9,47.46c0,0 8.06,-0.9 -2.68,-28.2c-10.39,-26.41 -35.27,-60.77 -36.91,-63.01c1.08,-1.3 1.66,-2.55 1.93,-3.66l0,1.19c0,0 0.95,1.01 15.28,18.91c14.33,17.91 27.76,42.53 27.76,42.53c0,0 3.13,-2.68 -7.62,-19.25c-10.2,-15.73 -32.98,-41.92 -35.24,-44.5c0.18,-2.14 -0.68,-3.57 -0.68,-3.57l-3.16,-4.74l1.03,1.33c0,0 2.69,2.24 8.51,8.06c5.82,5.82 32.68,38.5 32.68,38.5c0,0 3.13,-2.24 -9.85,-16.57c-11.72,-12.93 -29.92,-29.65 -33.34,-32.77l-1.58,-2.37c0,0 11.94,4.8 31.22,25.52c27.2,29.21 25.86,47.68 25.86,47.68c0,0 5.04,10.07 4.7,22.16m-108.37,80.43l10.16,-1.61c0,0 -4.93,1.85 -10.16,1.61m15.25,-56.03c4.12,-37.51 11.36,-95.33 11.36,-95.33l-12.12,103.43l0.76,-8.1zm0,50.59c0.9,-4.92 2.24,-12.98 8.51,-14.33c0,0 0.89,7.17 -0.45,13.43c-1.34,6.27 -2.24,8.06 -2.24,8.06c0,0 1.18,0.33 2.9,0.41c-0.18,0.01 -0.36,0.03 -0.55,0.04c-5.68,0.2 -9.33,-1.22 -11.34,-2.38c0.79,-0.34 2.49,-1.5 3.17,-5.23m-40.29,-93.57c17.01,-29.1 32.85,-57.47 32.85,-57.47c0,0 -24.45,29.61 -40.91,53.89c-26.42,38.95 -12.54,60.44 -12.54,60.44c0,0 3.59,-27.76 20.6,-56.86m-27.76,-13.88c0,0 16.34,-20.37 27.76,-31.34c11.41,-10.97 25.52,-21.94 25.52,-21.94c0,0 -13.93,8.46 -31.79,24.18c-22.39,19.7 -21.49,29.1 -21.49,29.1m53.28,-57.3c0,0 -25.52,14.32 -31.34,18.35c-5.82,4.03 -6.72,8.06 -6.72,8.06c0,0 11.64,-9.4 21.49,-15.67c9.85,-6.27 16.57,-10.74 16.57,-10.74m-0.48,170.19c-1.47,-0.06 -2.95,-0.29 -4.36,-0.77c-6.47,-2.18 -10.41,-7.13 -10.41,-7.13c0,0 -9.16,2.27 -19.48,-7.81c-7.13,-6.97 -7.55,-11.67 -7.55,-11.67c0,0 -6.55,-3.27 -10.83,-8.31c-4.28,-5.03 -5.54,-9.07 -5.54,-9.07c0,0 -8.82,-6.8 -10.24,-19.97c-1.43,-13.18 0.5,-17.55 0.5,-17.55c0,0 -2.84,-5.51 -0.59,-17.63c1.76,-9.48 6.72,-15.69 6.72,-15.69c0,0 7.64,-21.66 30.22,-39.21c16.54,-12.85 39.45,-24.17 39.45,-24.17l-6.8,6.63c0,0 -2.56,6.17 2.44,11.25c0,0 -24.11,16.74 -44.69,44.18c-17.46,23.28 -13.43,34.48 -13.43,34.48c0,0 11.64,-24.18 26.41,-42.09c14.78,-17.91 31.71,-36.57 31.71,-36.57c2.08,2.12 4.62,4.21 7.85,5.92l-0.04,-0.02c0,0 -35.47,70.27 -41.98,94.47c-9.92,36.86 12.19,49.15 12.19,49.15c0,0 -5.25,-8.19 8.18,-54.75c13.43,-46.56 27.35,-86.53 27.35,-86.53l-0.01,0c0.59,0.17 1.19,0.33 1.8,0.48c-0.54,2.64 -16.69,80.73 -21.97,109.33c-5.38,29.1 3.1,43.05 3.1,43.05" fill="#fff957" fill-rule="nonzero" id="path120" stroke-width="1.07"/>
     </g>
     <g id="g122">
      <path d="m442.97,375.6l-0.76,8.1l-3.72,31.75l-0.61,14.57l-10.16,1.61c0,0 -8.48,-13.95 -3.1,-43.05c5.28,-28.6 21.43,-106.69 21.97,-109.33c0.01,-0.05 0.02,-0.07 0.02,-0.07l7.72,1.09c0,0 -7.24,57.82 -11.36,95.33m-60.89,13.88c0,0 -13.87,-21.49 12.54,-60.44c16.46,-24.28 40.91,-53.89 40.91,-53.89c0,0 -15.84,28.37 -32.85,57.47c-17.01,29.1 -20.6,56.86 -20.6,56.86m-7.16,-70.74c0,0 -0.9,-9.4 21.49,-29.1c17.86,-15.72 31.78,-24.17 31.78,-24.17c0,0 -14.1,10.96 -25.51,21.93c-11.42,10.97 -27.76,31.34 -27.76,31.34m-1.79,30.45c0,0 -4.03,-11.2 13.43,-34.48c20.58,-27.44 44.69,-44.18 44.69,-44.18c0,0 -16.93,18.66 -31.71,36.57c-14.77,17.91 -26.41,42.09 -26.41,42.09m17.01,-61.34c0,0 0.9,-4.03 6.72,-8.06c5.82,-4.03 31.33,-18.35 31.33,-18.35c0,0 -6.71,4.47 -16.56,10.74c-9.85,6.27 -21.49,15.67 -21.49,15.67m19.13,132.2c0,0 -22.11,-12.29 -12.19,-49.15c6.51,-24.2 41.98,-94.47 41.98,-94.47l0.04,0.02l5.69,2.32l0.01,0c0,0 -13.92,39.97 -27.35,86.53c-13.43,46.56 -8.18,54.75 -8.18,54.75" fill="#4e94bd" fill-rule="nonzero" id="path124" stroke-width="1.07"/>
     </g>
     <g id="g126" transform="translate(484.6, 211.402)">
      <path d="m-46.4,36.8c0.27,-0.59 0.52,-0.92 0.52,-0.92c-0.18,0.32 -0.35,0.62 -0.52,0.92m80.88,59.35c0,0 -26.86,-32.68 -32.68,-38.5c-4.11,-4.12 -6.65,-6.43 -7.79,-7.44c1.51,1.83 2.58,3.46 2.21,6.49c2.75,3.16 25.05,28.84 35.13,44.37c10.74,16.57 7.61,19.26 7.61,19.26c0,0 -13.43,-24.63 -27.76,-42.54c-14.33,-17.9 -15.28,-18.91 -15.28,-18.91l0,-0.71c-0.32,1.02 -0.96,2.12 -1.9,3.2c1.78,2.46 26.53,36.67 36.88,62.99c10.75,27.31 2.69,28.2 2.69,28.2c0,0 -0.45,-12.98 -17.91,-47.46c-17.46,-34.47 -23.11,-42.28 -23.11,-42.28l0,0c-0.89,0.78 -1.95,1.53 -3.17,2.24l0,0.02c1.98,3.73 24.38,46.54 31.65,80.76c7.61,35.82 -5.82,38.06 -5.82,38.06c0,0 0.9,-21.94 -9.85,-58.65c-10.57,-36.13 -18.97,-57.92 -19.23,-58.61c-0.86,0.35 -1.77,0.67 -2.74,0.96l0.48,-0.1c0,0 8.09,23.83 18.36,62.67c16.56,62.68 -14.78,69.4 -14.78,69.4c0,0 -0.89,-51.93 -3.13,-75.21c-1.18,-12.27 -2.98,-27.01 -4.42,-38.22c0.52,6.24 1,14.48 1.29,25.23c1.27,47.03 1.79,81.48 -0.45,98.05c-0.89,6.55 -3.67,9.87 -6.7,11.5c-2.44,1.32 -5.04,1.54 -6.97,1.44c-1.72,-0.08 -2.9,-0.41 -2.9,-0.41c0,0 0.9,-1.79 2.24,-8.05c1.34,-6.27 0.45,-13.44 0.45,-13.44c-6.27,1.35 -7.61,9.41 -8.51,14.33c-0.68,3.73 -2.38,4.89 -3.17,5.23c-0.25,0.12 -0.41,0.14 -0.41,0.14l-1.51,-1.53l0.62,-14.58l3.71,-31.75l12.08,-103.05c-0.87,-0.02 -1.74,-0.06 -2.65,-0.13c-18.29,-1.34 -23.67,-12.59 -24,-17.29c-0.23,-3.24 2.01,-5.37 4.87,-7.89c2.58,-2.28 4.06,-4.29 5.69,-7.14c-0.54,1.17 -1.16,3.35 -0.16,6.13c2.85,7.91 15.05,12 25.69,8.9c11.65,-3.4 9.27,-9.76 9.08,-10.21c0.09,0.22 0.83,1.86 3.21,5.31c3.71,3.39 21.62,19.87 33.21,32.66c12.99,14.32 9.85,16.56 9.85,16.56" fill="#ffd500" fill-rule="nonzero" id="path128" stroke-width="1.07"/>
     </g>
     <g id="g130" transform="translate(485.119, 219.377)">
      <path d="m-46.4,36.8c0,0 3.19,-7.56 16.79,-6.21c12.92,1.27 17.07,7.34 17.07,7.34c0,0 -3.13,7.6 -17.57,6.93c-12.97,-0.61 -16.29,-8.06 -16.29,-8.06" fill="#c9a800" fill-rule="nonzero" id="path132" stroke-width="1.07"/>
     </g>
     <g id="g134" transform="translate(485.119, 219.377)">
      <path d="m-46.4,36.8c0,0 -3.53,-5.71 0,-8.9c3.53,-3.19 9.57,-6.54 19.48,-5.37c9.26,1.1 14.71,5.85 15.11,11.75c0.16,2.52 -0.73,3.65 -0.73,3.65c0,0 -4.14,-6 -17.07,-7.34c-13.54,-1.41 -16.79,6.21 -16.79,6.21" fill="#ff8800" fill-rule="nonzero" id="path136" stroke-width="1.07"/>
     </g>
    </g>
   </g>
   <g id="g138">
    <g id="g140">
     <g id="g146">
      <path d="m459.7,220c-1.84,-0.18 -3.66,-0.56 -5.34,-1.12l0,0c-1.65,-0.55 -3.14,-1.28 -4.34,-2.15l0,0c-1.18,-0.84 -1.96,-1.74 -2.38,-2.63l0,0c-0.4,-0.86 -0.47,-1.7 -0.23,-2.49l0,0c0.23,-0.76 0.75,-1.47 1.53,-2.08l0,0c0.76,-0.59 1.76,-1.1 3,-1.49l0,0c0.29,-0.09 0.59,-0.17 0.89,-0.25l0,0c0.3,-0.07 0.6,-0.13 0.91,-0.19l0,0c0,0 0.01,0 0.01,0l0,0l0.01,0c0.68,-0.13 1.38,-0.22 2.1,-0.28l0,0c1.35,-0.1 2.77,-0.07 4.17,0.07l0,0c1.4,0.14 2.81,0.4 4.15,0.77l0,0c1.35,0.38 2.65,0.88 3.82,1.49l0,0c1.2,0.63 2.16,1.33 2.87,2.07l0,0c0.74,0.76 1.21,1.55 1.4,2.35l0,0c0.19,0.83 0.08,1.65 -0.36,2.42l0,0c-0.46,0.79 -1.27,1.53 -2.47,2.14l0,0c-1.23,0.63 -2.73,1.06 -4.39,1.29l0,0c-0.95,0.13 -1.94,0.2 -2.95,0.2l0,0c-0.79,0 -1.6,-0.04 -2.4,-0.12" fill="url(#linearGradient148)" id="path158" stroke-width="1.07"/>
     </g>
    </g>
   </g>
   <g id="g160">
    <g id="g162">
     <g id="g168">
      <path d="m456.64,233.18c-0.18,-0.02 -0.37,-0.06 -0.62,-0.11l0,0l-0.03,-0.01c-0.03,-0.01 -0.07,-0.02 -0.11,-0.02l0,0l0.01,0c-0.19,-0.04 -0.45,-0.1 -0.78,-0.19l0,0c-0.03,0 -0.06,-0.01 -0.08,-0.02l0,0c-0.06,-0.01 -0.26,-0.06 -0.55,-0.15l0,0c-1.03,-0.1 -2.08,-0.61 -3.01,-1.25l0,0l-0.01,0l-0.01,0c0,-0.01 -0.01,-0.01 -0.01,-0.01l0,0c-0.04,-0.02 -0.08,-0.05 -0.12,-0.07l0,0c-0.05,-0.02 -0.09,-0.05 -0.14,-0.08l0,0c-0.09,-0.05 -0.18,-0.1 -0.27,-0.16l0,0c-1.14,-0.67 -2.02,-1.44 -2.7,-2.27l0,0c-0.03,-0.04 -0.07,-0.09 -0.1,-0.13l0,0c-0.13,-0.16 -0.25,-0.31 -0.35,-0.45l0,0l0.11,0.15l-0.2,-0.28l-0.03,-0.04l0,-0.02c-0.01,-0.01 -0.02,-0.03 -0.03,-0.04l0,0c-0.22,-0.33 -0.35,-0.58 -0.42,-0.72l0,0c-0.05,-0.1 -0.11,-0.22 -0.17,-0.35l0,0c-0.02,-0.05 -0.05,-0.1 -0.07,-0.14l0,0l-0.05,-0.14c0,0 0,0 0,0.01l0,0c-0.01,-0.02 -0.02,-0.04 -0.03,-0.07l0,0c-0.02,-0.05 -0.04,-0.11 -0.07,-0.16l0,0c-0.02,-0.06 -0.04,-0.11 -0.06,-0.16l0,0c0,-0.02 -0.01,-0.04 -0.01,-0.05l0,0c-0.03,-0.07 -0.06,-0.15 -0.08,-0.23l0,0l0.04,0.12l-0.05,-0.13c-0.07,-0.21 -0.13,-0.42 -0.2,-0.66l0,0c-0.02,-0.09 -0.04,-0.17 -0.06,-0.25l0,0c-0.01,-0.06 -0.02,-0.11 -0.04,-0.17l0,0c-0.38,-1.6 -0.42,-3.14 -0.44,-4.35l0,0l-0.01,-0.36l0,-0.08l0,-0.01l0,-0.02l0,0l0,0l0,-0.02l0,0l0,-0.02l0,-0.03c0.01,-0.47 0.01,-0.94 0.01,-1.41l0,0l0,-0.01l0,0c0.01,-0.17 0.01,-0.38 0.01,-0.54l0,0l0,-0.09c0.01,-0.1 0.01,-0.21 0.02,-0.33l0,0l0,-0.12c0,-0.08 0.01,-0.18 0.01,-0.28l0,0c0,-0.01 0,-0.02 0,-0.03l0,0l0,0.01l0,-0.02c0.02,-0.2 0.03,-0.42 0.05,-0.63l0,0l0,-0.1c0,-0.02 0.01,-0.04 0.01,-0.06l0,0c0.02,-0.28 0.05,-0.56 0.08,-0.85l0,0l0,-0.03c0,0 0,0.01 0,0.01l0,0l0.01,-0.07c0,-0.03 0.01,-0.06 0.01,-0.09l0,0c0.02,-0.11 0.03,-0.22 0.04,-0.33l0,0c0.09,-0.65 0.2,-1.23 0.33,-1.76l0,0l0.01,-0.01l0,-0.01c0.03,-0.12 0.07,-0.25 0.1,-0.36l0,0l0.04,-0.16c0.02,-0.06 0.05,-0.13 0.07,-0.21l0,0c0,0.01 0,0.01 0,0.01l0,0l0.09,-0.28l0.11,-0.27c0,0 -0.01,0.01 -0.01,0.02l0,0c0.01,-0.01 0.01,-0.03 0.02,-0.04l0,0l0,-0.01c0,0 0,0 0,0.01l0,0c0.01,-0.03 0.02,-0.07 0.03,-0.09l0,0c0.03,-0.07 0.07,-0.14 0.11,-0.22l0,0c0.01,-0.02 0.02,-0.05 0.03,-0.08l0,0c0.02,-0.02 0.03,-0.04 0.04,-0.06l0,0l0,-0.01l0.13,-0.26c0.03,-0.05 0.07,-0.1 0.1,-0.15l0,0c0,-0.01 0.01,-0.02 0.02,-0.04l0,0c0,0 0,0 0,0l0,0c0,-0.01 0,-0.01 0.01,-0.02l0,0c0.01,-0.01 0.01,-0.02 0.02,-0.03l0,0c0.03,-0.04 0.06,-0.09 0.08,-0.12l0,0c0,-0.01 0,-0.01 0.01,-0.01l0,0c0,0 0,-0.01 0.01,-0.01l0,0c0,-0.01 0,-0.01 0.01,-0.02l0,0c0.02,-0.03 0.03,-0.05 0.06,-0.08l0,0c0.55,-0.8 1.24,-1.35 2.04,-1.8l0,0c0.09,-0.06 0.19,-0.11 0.28,-0.15l0,0c0.05,-0.03 0.09,-0.05 0.14,-0.07l0,0c0.11,-0.06 0.21,-0.1 0.29,-0.15l0,0c0.01,0 0.02,0 0.02,-0.01l0,0c0.29,-0.14 0.49,-0.22 0.75,-0.32l0,0c0.03,-0.01 0.05,-0.02 0.07,-0.03l0,0l0.7,-0.24c0.23,-0.08 0.54,-0.15 0.77,-0.22l0,0l0.04,-0.01c0.13,-0.03 0.26,-0.06 0.39,-0.09l0,0l0.34,-0.08c0.06,-0.01 0.12,-0.02 0.18,-0.03l0,0c0.06,-0.01 0.13,-0.03 0.2,-0.04l0,0c0.15,-0.03 0.29,-0.05 0.42,-0.07l0,0l0.28,-0.04c0.11,-0.01 0.22,-0.03 0.33,-0.04l0,0l0.2,-0.03c0.13,-0.01 0.28,-0.02 0.42,-0.04l0,0c0.11,-0.01 0.22,-0.02 0.32,-0.03l0,0c0.03,0 0.06,-0.01 0.08,-0.01l0,0l0.83,-0.05c0.02,0 0.05,0 0.07,0l0,0c0.06,0 0.13,0 0.19,0l0,0c0.2,0 0.41,-0.01 0.58,-0.01l0,0l0.22,0c0.09,0 0.17,0 0.26,0l0,0l0.37,0.01c0.12,0 0.51,0.01 1.33,0.08l0,0c0.03,0.01 0.07,0.01 0.1,0.01l0,0c0.05,0.01 0.09,0.01 0.14,0.01l0,0c0.04,0.01 0.08,0.01 0.12,0.01l0,0c0.27,0.03 0.55,0.06 0.84,0.11l0,0l0.01,0l0.84,0.12l0,0c0.26,0 0.59,0.11 0.84,0.16l0,0l0.07,0.02c0.09,0.02 0.19,0.04 0.27,0.06l0,0l0.49,0.1c0.05,0.02 0.1,0.03 0.16,0.05l0,0c0.14,0.03 0.27,0.07 0.41,0.1l0,0c0.09,0.03 0.18,0.05 0.25,0.07l0,0l0.51,0.15c0.03,0.01 0.06,0.02 0.09,0.03l0,0l0.21,0.06c0.24,0.08 0.55,0.19 0.79,0.27l0,0l0.78,0.3c0.23,0.1 0.53,0.23 0.75,0.33l0,0l0.74,0.37c0.22,0.11 0.47,0.25 0.73,0.41l0,0c1.16,0.68 2.02,1.42 2.65,2.21l0,0c0.04,0.05 0.08,0.11 0.12,0.16l0,0c0.04,0.04 0.07,0.08 0.11,0.13l0,0c0,0.01 0.01,0.02 0.02,0.02l0,0c0.03,0.05 0.06,0.1 0.09,0.14l0,0c0.14,0.21 0.25,0.4 0.35,0.57l0,0c0.01,0.02 0.02,0.04 0.03,0.06l0,0c0.02,0.04 0.04,0.07 0.06,0.1l0,0l0.22,0.52c0.02,0.04 0.03,0.09 0.05,0.14l0,0c0,0.02 0.02,0.04 0.02,0.06l0,0c0.07,0.22 0.15,0.51 0.22,0.89l0,0l0,0.03c0,0.02 0.01,0.05 0.01,0.07l0,0c0.01,0.06 0.02,0.12 0.03,0.18l0,0c0.22,1.47 0.02,3.1 -0.33,4.89l0,0c-0.01,0.02 -0.01,0.05 -0.02,0.07l0,0l-0.01,0.06c-0.01,0.04 -0.01,0.08 -0.02,0.11l0,0l-0.07,0.35c-0.03,0.16 -0.08,0.37 -0.12,0.53l0,0l-0.12,0.54c-0.11,0.46 -0.23,0.92 -0.35,1.38l0,0c-0.05,0.22 -0.13,0.51 -0.19,0.72l0,0l-0.14,0.5c-0.04,0.15 -0.1,0.35 -0.15,0.5l0,0l-0.16,0.47c0,0.02 -0.01,0.03 -0.01,0.05l0,0c-0.01,0.03 -0.02,0.07 -0.04,0.11l0,0c-0.04,0.11 -0.08,0.22 -0.11,0.32l0,0l-0.06,0.16c-0.03,0.07 -0.05,0.14 -0.08,0.21l0,0l-0.03,0.07c-0.05,0.13 -0.12,0.31 -0.18,0.45l0,0l0,0.01c-0.02,0.03 -0.03,0.07 -0.05,0.1l0,0l-0.13,0.31c-0.02,0.06 -0.06,0.12 -0.09,0.19l0,0c0,0.02 -0.01,0.03 -0.02,0.04l0,0c-0.03,0.08 -0.06,0.15 -0.1,0.21l0,0l-0.2,0.4c-0.07,0.14 -0.18,0.33 -0.26,0.47l0,0l-0.24,0.39c-0.02,0.03 -0.05,0.07 -0.07,0.1l0,0c-0.05,0.08 -0.11,0.15 -0.16,0.22l0,0c-0.03,0.06 -0.07,0.11 -0.11,0.16l0,0c-0.03,0.04 -0.06,0.08 -0.08,0.11l0,0l-0.05,0.07c-0.78,1 -1.51,1.5 -2.08,1.88l0,0c-0.34,0.23 -0.85,0.53 -1.53,0.82l0,0c0,0 0,0 -0.01,0l0,0l-0.02,0.01c-0.05,0.02 -0.08,0.04 -0.13,0.06l0,0c-0.23,0.09 -0.37,0.15 -0.63,0.24l0,0c-0.02,0.01 -0.05,0.01 -0.06,0.02l0,0l-0.04,0.01c0,0 0,0 0,0l0,0l-0.01,0c-0.06,0.02 -0.12,0.04 -0.18,0.06l0,0c-0.05,0.02 -0.09,0.03 -0.14,0.05l0,0c-0.17,0.05 -0.33,0.1 -0.49,0.14l0,0c-0.12,0.04 -0.21,0.06 -0.3,0.08l0,0c-0.04,0.01 -0.09,0.02 -0.13,0.03l0,0c-0.07,0.02 -0.14,0.04 -0.22,0.05l0,0c-0.12,0.03 -0.26,0.07 -0.41,0.09l0,0c-0.29,0.09 -0.65,0.14 -1.1,0.18l0,0c-0.21,0.06 -0.46,0.1 -0.74,0.12l0,0c-0.24,0.05 -0.53,0.07 -0.86,0.07l0,0c-0.15,0.01 -0.3,0.02 -0.48,0.02l0,0c-0.7,0 -1.63,-0.13 -2.84,-0.36m-6.18,-14.63c-0.77,0.07 -1.08,3.29 -1.01,5.5l0,0c0.07,2.21 0.1,6.52 3.2,7.61l0,0c3.11,1.09 4.79,-1.93 5.54,-5.29l0,0c0.76,-3.36 0.68,-4.7 0.32,-5.16l0,0c-0.35,-0.46 -1.91,-0.8 -4.77,-1.64l0,0c0,0 -2.36,-1.02 -3.21,-1.02l0,0c-0.02,0 -0.05,0 -0.07,0m21.12,5.24c0.02,-0.02 0.03,-0.04 0.03,-0.07l0,0c0,0.03 -0.01,0.05 -0.03,0.07m0.18,-1.01c0,0 0,0 0,0l0,0c0,0 0,0 0,0m-25.21,-1.76c0,0 0,0 0,-0.01l0,0c0,0 0,0 0,0l0,0c0,0.01 0,0.01 0,0.01m9.3,-13.71c-0.3,0.03 -0.6,0.06 -0.9,0.09l0,0c-0.09,0.02 -0.18,0.03 -0.27,0.04l0,0c-0.27,0.04 -0.53,0.07 -0.79,0.12l0,0c-0.05,0.01 -0.09,0.02 -0.14,0.03l0,0c-0.62,0.11 -1.23,0.26 -1.81,0.44l0,0c-1.24,0.39 -2.25,0.9 -3,1.49l0,0c-0.78,0.61 -1.3,1.32 -1.53,2.08l0,0c-0.25,0.79 -0.18,1.63 0.23,2.49l0,0c0.42,0.89 1.2,1.79 2.38,2.63l0,0c1.2,0.87 2.69,1.6 4.34,2.15l0,0c1.68,0.56 3.5,0.94 5.34,1.12l0,0c1.83,0.18 3.66,0.15 5.35,-0.08l0,0c1.66,-0.23 3.16,-0.66 4.39,-1.29l0,0c1.19,-0.61 2.01,-1.35 2.47,-2.14l0,0c0.44,-0.77 0.55,-1.59 0.36,-2.42l0,0c-0.19,-0.79 -0.66,-1.59 -1.4,-2.35l0,0c-0.71,-0.74 -1.67,-1.44 -2.87,-2.07l0,0c-1.18,-0.61 -2.47,-1.11 -3.83,-1.49l0,0c-1.33,-0.37 -2.74,-0.63 -4.14,-0.77l0,0c-0.83,-0.09 -1.66,-0.13 -2.48,-0.13l0,0c-0.57,0 -1.14,0.02 -1.7,0.06m-9.91,11.91l0,0c0,-0.01 0,-0.01 0,-0.02l0,0c0,0.01 0,0.01 0,0.02m-0.05,0.99l0,0.05l0,-0.05zm0.19,-4.66l0,0.01c0,-0.01 0,-0.01 0,-0.01m0.61,-2.99l0,0c0,0 0,0 0,0" fill="url(#linearGradient170)" id="path180" stroke-width="1.07"/>
     </g>
    </g>
   </g>
   <g id="g182">
    <g id="g184">
     <g id="g190">
      <path d="m452.65,231.67c-3.1,-1.1 -3.13,-5.4 -3.2,-7.61l0,0c-0.07,-2.22 0.24,-5.43 1.01,-5.5l0,0c0.77,-0.07 3.28,1.02 3.28,1.02l0,0c2.86,0.84 4.42,1.18 4.77,1.64l0,0c0.36,0.46 0.44,1.8 -0.32,5.16l0,0c-0.64,2.88 -1.97,5.51 -4.3,5.51l0,0c-0.38,0 -0.79,-0.07 -1.24,-0.22" fill="url(#linearGradient192)" id="path200" stroke-width="1.07"/>
     </g>
    </g>
   </g>
   <g id="g202">
    <g clip-path="url(#clipPath206)" id="g204">
     <g id="g210" transform="translate(519.704, 216.859)">
      <path d="m-46.4,36.8l-6.67,-22.49" fill="none" id="path212" stroke="#5e4014" stroke-linecap="round" stroke-linejoin="round" stroke-miterlimit="4" stroke-width="1.07"/>
     </g>
     <g id="g214" transform="translate(484.113, 211.767)">
      <path d="m-46.4,36.8l10.39,-19.86" fill="none" id="path216" stroke="#5e4014" stroke-linecap="round" stroke-linejoin="round" stroke-miterlimit="4" stroke-width="1.07"/>
     </g>
     <g id="g218" transform="translate(490.714, 224.529)">
      <path d="m-46.4,36.8l8.96,-29.5" fill="none" id="path220" stroke="#5e4014" stroke-linecap="round" stroke-linejoin="round" stroke-miterlimit="4" stroke-width="1.07"/>
     </g>
     <g id="g222" transform="translate(510.974, 226.205)">
      <path d="m-46.4,36.8l-3.02,-29.67" fill="none" id="path224" stroke="#5e4014" stroke-linecap="round" stroke-linejoin="round" stroke-miterlimit="4" stroke-width="1.07"/>
     </g>
     <g id="g226" transform="translate(502.005, 204.897)">
      <path d="m-46.4,36.8l1.03,-8.51" fill="none" id="path228" stroke="#5e4014" stroke-miterlimit="4" stroke-width="1.07"/>
     </g>
    </g>
   </g>
  </g>
 </g>
</svg>