<?xml version="1.0" standalone="no"?>
<!DOCTYPE svg PUBLIC "-//W3C//DTD SVG 20010904//EN"
 "http://www.w3.org/TR/2001/REC-SVG-20010904/DTD/svg10.dtd">
<svg version="1.0" xmlns="http://www.w3.org/2000/svg"
 width="700.000000pt" height="700.000000pt" viewBox="0 0 700.000000 700.000000"
 preserveAspectRatio="xMidYMid meet">
<metadata>
Created by potrace 1.14, written by Peter Selinger 2001-2017
</metadata>
<g transform="translate(0.000000,700.000000) scale(0.100000,-0.100000)"
fill="#000000" stroke="none">
<path d="M4883 6550 c-4 -4 -93 -45 -198 -90 -104 -46 -228 -99 -275 -120 -47
-20 -231 -101 -410 -179 -179 -78 -338 -148 -355 -156 -16 -7 -56 -25 -88 -39
l-58 -25 -61 -127 -60 -126 36 -84 c20 -45 36 -87 36 -91 0 -4 -345 -156 -768
-337 -422 -181 -772 -334 -779 -340 -6 -6 -33 -65 -60 -131 l-49 -120 38 -89
c21 -49 37 -90 36 -91 -2 -2 -181 -78 -398 -170 -755 -320 -693 -291 -711
-333 -9 -20 -36 -78 -59 -129 l-43 -91 38 -89 c39 -91 47 -111 88 -203 13 -30
61 -141 106 -247 l83 -192 66 -26 c37 -15 81 -33 97 -40 96 -41 66 -48 386 85
162 66 319 132 349 145 30 13 90 37 132 54 42 17 96 39 120 49 111 49 221 93
223 89 3 -3 27 -57 53 -117 l19 -45 119 -39 c65 -22 126 -39 134 -38 13 0
1166 477 1545 638 6 3 26 -33 44 -78 19 -46 37 -86 41 -91 9 -10 241 -107 256
-107 10 0 101 36 185 73 60 26 99 43 354 152 138 59 264 113 280 120 17 8 59
26 95 40 36 15 85 36 109 47 25 11 106 46 180 78 75 32 159 68 188 80 l52 23
50 128 50 129 -461 1079 -462 1079 -125 50 c-123 49 -152 56 -168 42z m181
-828 c93 -218 180 -419 192 -447 12 -27 97 -225 188 -440 92 -214 178 -414
192 -444 29 -63 34 -56 -72 -102 -34 -15 -216 -96 -405 -179 -465 -206 -498
-220 -503 -212 -2 4 -56 122 -119 262 -63 140 -128 284 -145 320 -16 36 -49
108 -72 160 -24 52 -58 127 -75 166 -18 38 -83 182 -145 320 -62 137 -127 281
-145 319 -18 39 -47 104 -65 145 -18 41 -39 82 -46 91 -12 14 -10 17 18 26 18
6 89 34 158 63 69 28 253 103 410 167 157 63 299 121 315 128 90 38 131 54
140 54 6 1 86 -178 179 -397z m-1394 -724 c35 -79 81 -179 101 -223 20 -44 58
-127 84 -185 26 -58 65 -143 87 -190 22 -47 51 -112 65 -145 14 -33 39 -86 55
-119 16 -32 28 -60 26 -62 -2 -1 -37 -17 -78 -35 -41 -17 -88 -37 -105 -45
-113 -51 -1112 -474 -1121 -474 -6 0 -26 35 -44 78 -19 42 -50 113 -71 157
-143 311 -369 816 -369 825 0 6 8 13 18 17 9 3 73 29 142 59 69 29 334 141
590 249 256 109 483 205 505 215 22 10 42 19 45 19 3 1 34 -63 70 -141z
m-1564 -1058 c25 -58 52 -119 59 -135 7 -17 23 -51 33 -76 l20 -47 -76 -30
c-125 -50 -425 -172 -447 -182 -42 -20 -437 -180 -443 -180 -13 0 -155 361
-146 369 5 4 106 48 224 96 118 48 233 95 255 105 22 10 101 43 175 73 74 31
167 69 205 86 39 16 76 29 83 28 7 -1 33 -49 58 -107z"/>
<path d="M3300 2839 c-228 -98 -424 -183 -435 -189 -11 -5 -51 -23 -90 -39
l-70 -29 -157 -358 c-86 -198 -166 -381 -178 -409 -62 -142 -295 -676 -312
-715 -11 -25 -26 -58 -33 -75 -7 -16 -25 -56 -39 -87 -14 -32 -24 -59 -23 -59
7 -5 469 -4 475 0 4 3 34 65 67 136 32 72 75 168 97 213 21 46 38 85 38 87 0
1 20 47 46 101 54 118 43 95 149 327 47 104 85 190 85 192 0 2 18 41 39 87 22
45 94 204 161 352 67 149 128 281 135 295 12 22 14 -129 14 -1069 0 -602 1
-1107 1 -1123 l0 -27 218 2 217 3 0 863 c0 474 3 862 6 862 6 0 127 -188 164
-253 10 -18 476 -766 507 -815 10 -15 21 -34 25 -42 4 -8 33 -55 65 -105 l57
-90 251 0 c137 -1 250 3 250 7 0 8 -18 43 -33 62 -4 6 -96 155 -204 331 -108
176 -220 358 -249 405 -295 475 -674 1094 -674 1101 0 5 -4 9 -10 9 -5 0 -10
4 -10 9 0 9 -115 198 -129 212 -3 4 -193 -74 -421 -172z"/>
</g>
</svg>
